#Comment line ignore any data following # character 
#Hierarchical Translation and Rotation (.htr) file 
[Header]	
#Header keywords are followed by a single value 
FileType HTR		#Single word string
DataType HTRS		#Translation followed by rotation and scale data
FileVersion 1		#integer
NumSegments 84		#integer
NumFrames 2		#integer
DataFrameRate 30		#integer, data frame rate in this file
EulerRotationOrder ZYX
CalibrationUnits mm
RotationUnits Degrees
GlobalAxisofGravity Y
BoneLengthAxis Y
ScaleFactor 1.00
[SegmentNames&Hierarchy]
#CHILD	PARENT
MASTER GLOBAL
root MASTER
chest root
L_mid_tent01 root
R_mid_tent01 root
spine01 root
Bip01_Neck chest
L_humerus chest
R_humerus chest
weapon_bone chest
Bip01_Head Bip01_Neck
eye_left_bone Bip01_Head
eye_right_bone Bip01_Head
L_forearm L_humerus
L_front_hand L_forearm
L_weapon_bone L_forearm
L_front_hand01_01 L_front_hand
L_front_hand02_01 L_front_hand
L_front_hand03_01 L_front_hand
L_front_hand01_02 L_front_hand01_01
L_front_hand02_02 L_front_hand02_01
L_front_hand03_02 L_front_hand03_01
R_forearm R_humerus
R_front_hand R_forearm
R_weapon_bone R_forearm
R_front_hand01_01 R_front_hand
R_front_hand02_01 R_front_hand
R_front_hand03_01 R_front_hand
R_front_hand01_02 R_front_hand01_01
R_front_hand02_02 R_front_hand02_01
R_front_hand03_02 R_front_hand03_01
null_rope01_connect L_mid_tent01
Rope1_Seg01 null_rope01_connect
Rope1_Seg02 Rope1_Seg01
Rope1_Seg03 Rope1_Seg02
Rope1_Seg04 Rope1_Seg03
Rope1_Seg05 Rope1_Seg04
Rope1_Seg06 Rope1_Seg05
Rope1_Seg07 Rope1_Seg06
Rope1_Seg09 Rope1_Seg07
L_mid_hand01 Rope1_Seg09
L_mid_hand02 Rope1_Seg09
L_mid_hand03 Rope1_Seg09
null_rope02_connect R_mid_tent01
Rope2_Seg01 null_rope02_connect
Rope2_Seg02 Rope2_Seg01
Rope2_Seg03 Rope2_Seg02
Rope2_Seg04 Rope2_Seg03
Rope2_Seg05 Rope2_Seg04
Rope2_Seg06 Rope2_Seg05
Rope2_Seg07 Rope2_Seg06
Rope2_Seg09 Rope2_Seg07
R_mid_hand01 Rope2_Seg09
R_mid_hand02 Rope2_Seg09
R_mid_hand03 Rope2_Seg09
spine02 spine01
spine03 spine02
pelvis spine03
null_rope03_connect pelvis
null_rope04_connect pelvis
Rope3_Seg01 null_rope03_connect
Rope3_Seg02 Rope3_Seg01
Rope3_Seg03 Rope3_Seg02
Rope3_Seg04 Rope3_Seg03
Rope3_Seg05 Rope3_Seg04
Rope3_Seg06 Rope3_Seg05
Rope3_Seg07 Rope3_Seg06
Rope3_Seg08 Rope3_Seg07
Rope3_Seg09 Rope3_Seg08
R_rear_hand01 Rope3_Seg09
R_rear_hand02 Rope3_Seg09
R_rear_hand03 Rope3_Seg09
Rope4_Seg01 null_rope04_connect
Rope4_Seg02 Rope4_Seg01
Rope4_Seg03 Rope4_Seg02
Rope4_Seg04 Rope4_Seg03
Rope4_Seg05 Rope4_Seg04
Rope4_Seg06 Rope4_Seg05
Rope4_Seg07 Rope4_Seg06
Rope4_Seg08 Rope4_Seg07
Rope4_Seg09 Rope4_Seg08
L_rear_hand01 Rope4_Seg09
L_rear_hand02 Rope4_Seg09
L_rear_hand03 Rope4_Seg09
[BasePosition]
#SegmentName Tx, Ty, Tz, Rx, Ry, Rz, BoneLength
MASTER 0.000000 0.000000 0.000000 -90.000000 0.000000 0.000000 10.000000 
root 0.000000 0.000000 0.000000 0.000000 0.000000 0.000000 10.000000 
chest 0.000000 0.000000 0.000000 0.000000 0.000000 0.000000 10.000000 
L_mid_tent01 0.000000 0.000000 0.000000 0.000000 0.000000 0.000000 10.000000 
R_mid_tent01 0.000000 0.000000 0.000000 0.000000 0.000000 0.000000 10.000000 
spine01 0.000000 0.000000 0.000000 0.000000 0.000000 0.000000 10.000000 
Bip01_Neck 0.000000 0.000000 0.000000 0.000000 0.000000 0.000000 10.000000 
L_humerus 0.000000 0.000000 0.000000 0.000000 0.000000 0.000000 10.000000 
R_humerus 0.000000 0.000000 0.000000 0.000000 0.000000 0.000000 10.000000 
weapon_bone 0.000000 0.000000 0.000000 0.000000 0.000000 0.000000 10.000000 
Bip01_Head 0.000000 0.000000 0.000000 0.000000 0.000000 0.000000 10.000000 
eye_left_bone 0.000000 0.000000 0.000000 0.000000 0.000000 0.000000 10.000000 
eye_right_bone 0.000000 0.000000 0.000000 0.000000 0.000000 0.000000 10.000000 
L_forearm 0.000000 0.000000 0.000000 0.000000 0.000000 0.000000 10.000000 
L_front_hand 0.000000 0.000000 0.000000 0.000000 0.000000 0.000000 10.000000 
L_weapon_bone 0.000000 0.000000 0.000000 0.000000 0.000000 0.000000 10.000000 
L_front_hand01_01 0.000000 0.000000 0.000000 0.000000 0.000000 0.000000 10.000000 
L_front_hand02_01 0.000000 0.000000 0.000000 0.000000 0.000000 0.000000 10.000000 
L_front_hand03_01 0.000000 0.000000 0.000000 0.000000 0.000000 0.000000 10.000000 
L_front_hand01_02 0.000000 0.000000 0.000000 0.000000 0.000000 0.000000 10.000000 
L_front_hand02_02 0.000000 0.000000 0.000000 0.000000 0.000000 0.000000 10.000000 
L_front_hand03_02 0.000000 0.000000 0.000000 0.000000 0.000000 0.000000 10.000000 
R_forearm 0.000000 0.000000 0.000000 0.000000 0.000000 0.000000 10.000000 
R_front_hand 0.000000 0.000000 0.000000 0.000000 0.000000 0.000000 10.000000 
R_weapon_bone 0.000000 0.000000 0.000000 0.000000 0.000000 0.000000 10.000000 
R_front_hand01_01 0.000000 0.000000 0.000000 0.000000 0.000000 0.000000 10.000000 
R_front_hand02_01 0.000000 0.000000 0.000000 0.000000 0.000000 0.000000 10.000000 
R_front_hand03_01 0.000000 0.000000 0.000000 0.000000 0.000000 0.000000 10.000000 
R_front_hand01_02 0.000000 0.000000 0.000000 0.000000 0.000000 0.000000 10.000000 
R_front_hand02_02 0.000000 0.000000 0.000000 0.000000 0.000000 0.000000 10.000000 
R_front_hand03_02 0.000000 0.000000 0.000000 0.000000 0.000000 0.000000 10.000000 
null_rope01_connect 0.000000 0.000000 0.000000 0.000000 0.000000 0.000000 10.000000 
Rope1_Seg01 0.000000 0.000000 0.000000 0.000000 0.000000 0.000000 10.000000 
Rope1_Seg02 0.000000 0.000000 0.000000 0.000000 0.000000 0.000000 10.000000 
Rope1_Seg03 0.000000 0.000000 0.000000 0.000000 0.000000 0.000000 10.000000 
Rope1_Seg04 0.000000 0.000000 0.000000 0.000000 0.000000 0.000000 10.000000 
Rope1_Seg05 0.000000 0.000000 0.000000 0.000000 0.000000 0.000000 10.000000 
Rope1_Seg06 0.000000 0.000000 0.000000 0.000000 0.000000 0.000000 10.000000 
Rope1_Seg07 0.000000 0.000000 0.000000 0.000000 0.000000 0.000000 10.000000 
Rope1_Seg09 0.000000 0.000000 0.000000 0.000000 0.000000 0.000000 10.000000 
L_mid_hand01 0.000000 0.000000 0.000000 0.000000 0.000000 0.000000 10.000000 
L_mid_hand02 0.000000 0.000000 0.000000 0.000000 0.000000 0.000000 10.000000 
L_mid_hand03 0.000000 0.000000 0.000000 0.000000 0.000000 0.000000 10.000000 
null_rope02_connect 0.000000 0.000000 0.000000 0.000000 0.000000 0.000000 10.000000 
Rope2_Seg01 0.000000 0.000000 0.000000 0.000000 0.000000 0.000000 10.000000 
Rope2_Seg02 0.000000 0.000000 0.000000 0.000000 0.000000 0.000000 10.000000 
Rope2_Seg03 0.000000 0.000000 0.000000 0.000000 0.000000 0.000000 10.000000 
Rope2_Seg04 0.000000 0.000000 0.000000 0.000000 0.000000 0.000000 10.000000 
Rope2_Seg05 0.000000 0.000000 0.000000 0.000000 0.000000 0.000000 10.000000 
Rope2_Seg06 0.000000 0.000000 0.000000 0.000000 0.000000 0.000000 10.000000 
Rope2_Seg07 0.000000 0.000000 0.000000 0.000000 0.000000 0.000000 10.000000 
Rope2_Seg09 0.000000 0.000000 0.000000 0.000000 0.000000 0.000000 10.000000 
R_mid_hand01 0.000000 0.000000 0.000000 0.000000 0.000000 0.000000 10.000000 
R_mid_hand02 0.000000 0.000000 0.000000 0.000000 0.000000 0.000000 10.000000 
R_mid_hand03 0.000000 0.000000 0.000000 0.000000 0.000000 0.000000 10.000000 
spine02 0.000000 0.000000 0.000000 0.000000 0.000000 0.000000 10.000000 
spine03 0.000000 0.000000 0.000000 0.000000 0.000000 0.000000 10.000000 
pelvis 0.000000 0.000000 0.000000 0.000000 0.000000 0.000000 10.000000 
null_rope03_connect 0.000000 0.000000 0.000000 0.000000 0.000000 0.000000 10.000000 
null_rope04_connect 0.000000 0.000000 0.000000 0.000000 0.000000 0.000000 10.000000 
Rope3_Seg01 0.000000 0.000000 0.000000 0.000000 0.000000 0.000000 10.000000 
Rope3_Seg02 0.000000 0.000000 0.000000 0.000000 0.000000 0.000000 10.000000 
Rope3_Seg03 0.000000 0.000000 0.000000 0.000000 0.000000 0.000000 10.000000 
Rope3_Seg04 0.000000 0.000000 0.000000 0.000000 0.000000 0.000000 10.000000 
Rope3_Seg05 0.000000 0.000000 0.000000 0.000000 0.000000 0.000000 10.000000 
Rope3_Seg06 0.000000 0.000000 0.000000 0.000000 0.000000 0.000000 10.000000 
Rope3_Seg07 0.000000 0.000000 0.000000 0.000000 0.000000 0.000000 10.000000 
Rope3_Seg08 0.000000 0.000000 0.000000 0.000000 0.000000 0.000000 10.000000 
Rope3_Seg09 0.000000 0.000000 0.000000 0.000000 0.000000 0.000000 10.000000 
R_rear_hand01 0.000000 0.000000 0.000000 0.000000 0.000000 0.000000 10.000000 
R_rear_hand02 0.000000 0.000000 0.000000 0.000000 0.000000 0.000000 10.000000 
R_rear_hand03 0.000000 0.000000 0.000000 0.000000 0.000000 0.000000 10.000000 
Rope4_Seg01 0.000000 0.000000 0.000000 0.000000 0.000000 0.000000 10.000000 
Rope4_Seg02 0.000000 0.000000 0.000000 0.000000 0.000000 0.000000 10.000000 
Rope4_Seg03 0.000000 0.000000 0.000000 0.000000 0.000000 0.000000 10.000000 
Rope4_Seg04 0.000000 0.000000 0.000000 0.000000 0.000000 0.000000 10.000000 
Rope4_Seg05 0.000000 0.000000 0.000000 0.000000 0.000000 0.000000 10.000000 
Rope4_Seg06 0.000000 0.000000 0.000000 0.000000 0.000000 0.000000 10.000000 
Rope4_Seg07 0.000000 0.000000 0.000000 0.000000 0.000000 0.000000 10.000000 
Rope4_Seg08 0.000000 0.000000 0.000000 0.000000 0.000000 0.000000 10.000000 
Rope4_Seg09 0.000000 0.000000 0.000000 0.000000 0.000000 0.000000 10.000000 
L_rear_hand01 0.000000 0.000000 0.000000 0.000000 0.000000 0.000000 10.000000 
L_rear_hand02 0.000000 0.000000 0.000000 0.000000 0.000000 0.000000 10.000000 
L_rear_hand03 0.000000 0.000000 0.000000 0.000000 0.000000 0.000000 10.000000 
#Beginning of Data. Separated by tabs
#Fr	Tx	Ty	Tz	Rx	Ry	Rz	SF
[MASTER]
6 0.000000 0.000000 0.000000 0.001660 0.001660 0.001660 0.000000
7 0.000000 0.000000 0.000000 0.001660 0.001660 0.001660 0.000000
[root]
6 -3.142083 -8.905904 1488.935913 -91.706375 7.188744 -90.037125 1488.965820
7 -2.073267 -10.617920 1485.826904 -91.706375 7.188744 -90.037125 1485.866211
[chest]
6 -84.512650 -34.090519 0.000000 -2.117274 0.462005 -179.268204 91.129311
7 -84.512650 -34.090519 0.000000 -2.117274 0.462005 -179.268204 91.129311
[L_mid_tent01]
6 27.299511 22.177458 -249.918259 -11.212390 7.173966 46.128525 252.381134
7 27.299511 22.177458 -249.918259 -11.212390 7.173966 46.128525 252.381134
[R_mid_tent01]
6 23.228794 24.509907 226.238495 -173.453110 -7.865565 48.320805 228.744751
7 23.228794 24.509907 226.238495 -173.453110 -7.865564 48.320797 228.744751
[spine01]
6 -0.361383 -0.195265 0.000000 -0.000001 -0.000007 22.052340 0.410763
7 -0.361383 -0.195265 0.000000 -0.000001 -0.000007 22.052340 0.410763
[Bip01_Neck]
6 165.484543 71.581718 0.000119 175.896118 1.177290 24.871183 180.302734
7 165.484543 71.581718 0.000119 175.896118 1.177290 24.871183 180.302734
[L_humerus]
6 -13.983130 -135.272980 -120.471481 177.317520 0.814944 177.327347 181.680161
7 -13.983130 -135.272980 -120.471481 177.317520 0.814944 177.327347 181.680161
[R_humerus]
6 -13.983309 -135.273102 125.287651 -179.087967 -0.295690 175.068390 184.909012
7 -13.983309 -135.273102 125.287651 -179.087967 -0.295690 175.068390 184.909012
[weapon_bone]
6 235.964890 -300.705902 0.000000 0.000000 -89.951546 -128.212341 382.234833
7 235.964890 -300.705902 0.000000 0.000000 -89.951546 -128.212341 382.234833
[Bip01_Head]
6 97.775497 22.186661 5.309563 3.366012 3.339071 -18.399078 100.401627
7 97.775497 22.186661 5.309563 3.366011 3.339071 -18.399075 100.401627
[eye_left_bone]
6 -24.626970 125.451866 -64.772606 0.000000 -90.000000 -99.840431 143.318359
7 -24.626970 125.451866 -64.772606 0.000000 -90.000000 -99.840431 143.318359
[eye_right_bone]
6 -24.626970 125.451866 64.327362 0.000000 -89.980217 80.156380 143.117676
7 -24.626970 125.451866 64.327362 0.000000 -89.965736 80.156380 143.117676
[L_forearm]
6 322.776093 0.000000 -0.000119 0.001372 -0.001904 -161.553818 322.776093
7 322.776093 0.000000 -0.000119 0.001372 -0.001904 -161.553818 322.776093
[L_front_hand]
6 241.149185 -0.042021 -3.300071 -179.659958 -2.242151 -0.019832 241.171753
7 241.149185 -0.042021 -3.300071 -179.659958 -2.242151 -0.019832 241.171753
[L_weapon_bone]
6 156.183838 0.000000 0.000000 0.000014 0.000007 0.000001 156.183838
7 156.183838 0.000000 0.000000 0.000014 0.000007 0.000001 156.183838
[L_front_hand01_01]
6 86.095154 20.947098 -0.655860 0.405585 -0.442306 -4.620490 88.609184
7 86.095154 20.947098 -0.655860 0.405585 -0.442306 -4.620490 88.609184
[L_front_hand02_01]
6 86.935165 -11.437475 24.513514 116.959450 3.630817 1.495453 91.046425
7 86.935165 -11.437475 24.513514 116.959450 3.630818 1.495453 91.046425
[L_front_hand03_01]
6 86.637497 -14.123976 -20.424902 -118.419884 -4.660555 -0.155069 90.126129
7 86.637497 -14.123976 -20.424902 -118.419884 -4.660555 -0.155069 90.126129
[L_front_hand01_02]
6 71.020905 -0.000179 0.000030 0.000004 -0.000005 -8.379269 71.020905
7 71.020905 -0.000179 0.000030 0.000004 -0.000005 -8.379269 71.020905
[L_front_hand02_02]
6 71.020927 -0.000119 0.000060 -0.000005 -0.000004 -8.379259 71.020927
7 71.020927 -0.000119 0.000060 -0.000005 -0.000004 -8.379259 71.020927
[L_front_hand03_02]
6 71.020905 -0.000060 0.000060 0.000015 -0.000040 -8.379267 71.020905
7 71.020905 -0.000060 0.000060 0.000015 -0.000040 -8.379267 71.020905
[R_forearm]
6 322.776428 -0.000060 0.000030 0.066610 0.203476 -163.260239 322.776428
7 322.776428 -0.000060 0.000030 0.066610 0.203476 -163.260239 322.776428
[R_front_hand]
6 238.847015 -0.006795 2.210259 -0.270529 1.703932 2.322530 238.857239
7 238.847015 -0.006795 2.210259 -0.270529 1.703932 2.322530 238.857239
[R_weapon_bone]
6 155.664093 0.002503 -0.000030 0.003487 0.001180 -90.988930 155.664078
7 155.664093 0.002503 -0.000030 0.003487 0.001180 -90.988930 155.664078
[R_front_hand01_01]
6 87.624611 14.231146 22.918642 -116.960213 3.496675 -1.324139 91.683487
7 87.624611 14.231146 22.918642 -116.960213 3.496675 -1.324138 91.683487
[R_front_hand02_01]
6 89.356956 14.367283 -19.491137 118.419647 -4.257089 0.609827 92.579636
7 89.356956 14.367283 -19.491137 118.419632 -4.257088 0.609827 92.579636
[R_front_hand03_01]
6 87.286232 -22.307278 -0.143439 -0.387970 -0.231462 4.232001 90.091743
7 87.286232 -22.307278 -0.143439 -0.387970 -0.231462 4.232001 90.091743
[R_front_hand01_02]
6 71.020905 0.000060 0.000119 -0.000005 -0.000020 8.379271 71.020905
7 71.020905 0.000060 0.000119 -0.000005 -0.000020 8.379271 71.020905
[R_front_hand02_02]
6 71.020844 -0.000030 -0.000119 0.000000 -0.000021 8.379271 71.020836
7 71.020844 -0.000030 -0.000119 0.000000 -0.000021 8.379271 71.020836
[R_front_hand03_02]
6 71.020905 0.000000 0.000030 -0.000001 -0.000020 8.379275 71.020905
7 71.020905 0.000000 0.000030 -0.000001 -0.000020 8.379275 71.020905
[null_rope01_connect]
6 328.732483 0.000000 -0.000238 160.552872 -75.066147 -124.625038 328.732483
7 328.732483 0.000000 -0.000238 160.552872 -75.066147 -124.625038 328.732483
[Rope1_Seg01]
6 0.000000 0.000000 0.000000 -104.621788 54.069485 -104.805603 0.000000
7 0.000000 0.000000 0.000000 -107.172165 53.675385 -106.491264 0.000000
[Rope1_Seg02]
6 139.999863 -0.000179 0.000000 27.954683 -11.542382 -12.760694 139.999863
7 139.999863 -0.000179 0.000000 30.264481 -12.236241 -13.530480 139.999863
[Rope1_Seg03]
6 139.999924 0.000060 -0.000060 14.103184 -12.558790 -3.142133 139.999924
7 139.999924 0.000060 -0.000060 14.641025 -13.326006 -3.093317 139.999924
[Rope1_Seg04]
6 139.999924 -0.000060 -0.000119 6.110795 -9.877314 1.034121 139.999924
7 139.999924 -0.000060 -0.000119 6.142635 -10.257526 1.160478 139.999924
[Rope1_Seg05]
6 139.999832 0.000119 -0.000060 0.550494 0.891444 -1.937884 139.999832
7 139.999832 0.000119 -0.000060 0.419790 0.833832 -1.676933 139.999832
[Rope1_Seg06]
6 139.999954 0.000119 -0.000060 -5.670386 11.692831 -7.916394 139.999954
7 139.999954 0.000119 -0.000060 -5.959281 11.740737 -7.221614 139.999954
[Rope1_Seg07]
6 139.999985 0.000060 0.000000 -56.331524 25.219524 -14.166520 139.999985
7 139.999985 0.000060 0.000000 -53.396400 26.198162 -13.064854 139.999985
[Rope1_Seg09]
6 121.602913 0.000119 -0.000089 -89.793175 -1.359789 0.847147 121.602913
7 121.602913 0.000119 -0.000089 -89.793175 -1.359789 0.847147 121.602913
[L_mid_hand01]
6 103.859421 1.038730 8.195221 106.855484 -31.239275 -9.461397 104.187431
7 103.859421 1.038730 8.195221 106.855484 -31.239275 -9.461397 104.187431
[L_mid_hand02]
6 105.572853 -4.139662 -10.864139 -142.331345 25.752670 -28.774628 106.211075
7 105.572853 -4.139662 -10.864139 -142.331345 25.752670 -28.774628 106.211075
[L_mid_hand03]
6 104.641464 17.579376 -3.913581 -16.122810 9.734291 34.223598 106.179977
7 104.641464 17.579376 -3.913581 -16.122810 9.734291 34.223598 106.179977
[null_rope02_connect]
6 328.732849 0.000179 -0.000119 174.610336 81.478409 -39.424759 328.732849
7 328.732849 0.000179 -0.000119 174.610306 81.478294 -39.424702 328.732849
[Rope2_Seg01]
6 0.000076 0.000110 0.000153 126.182419 48.044693 -99.531723 0.000203
7 0.000076 0.000110 0.000153 129.104691 48.129383 -96.205986 0.000203
[Rope2_Seg02]
6 139.999741 -0.000060 -0.000119 -2.545421 5.615777 0.976348 139.999756
7 139.999741 -0.000060 -0.000119 -3.422413 4.518957 2.570486 139.999756
[Rope2_Seg03]
6 140.000107 0.000030 0.000000 -3.502870 1.250435 4.081297 140.000107
7 140.000107 0.000030 0.000000 -4.791991 0.050302 6.487545 140.000107
[Rope2_Seg04]
6 139.999802 0.000000 -0.000060 -3.276877 14.083208 -3.973239 139.999802
7 139.999802 0.000000 -0.000060 -2.493093 13.351851 -4.155873 139.999802
[Rope2_Seg05]
6 139.999985 -0.000060 0.000119 -0.800647 6.275344 -2.434816 139.999985
7 139.999985 -0.000060 0.000119 0.157422 6.217971 -3.061002 139.999985
[Rope2_Seg06]
6 139.999893 -0.000030 -0.000119 -0.692101 2.124875 -0.599827 139.999893
7 139.999893 -0.000030 -0.000119 -0.328866 2.071861 -0.771000 139.999893
[Rope2_Seg07]
6 139.999893 0.000060 -0.000060 -0.491870 1.286101 -0.345136 139.999893
7 139.999893 0.000060 -0.000060 -0.235783 1.252016 -0.455946 139.999893
[Rope2_Seg09]
6 121.338966 0.000089 -0.000060 33.793236 -1.359788 -0.847141 121.338966
7 121.338966 0.000089 -0.000060 33.793236 -1.359788 -0.847141 121.338966
[R_mid_hand01]
6 104.680779 11.144459 -10.335981 -41.523792 25.424656 28.595957 105.778534
7 104.680779 11.144459 -10.335981 -41.523792 25.424656 28.595957 105.778534
[R_mid_hand02]
6 104.070427 2.443552 8.231699 72.847389 -32.746803 10.013901 104.424065
7 104.070427 2.443552 8.231699 72.847389 -32.746803 10.013901 104.424065
[R_mid_hand03]
6 106.028137 -11.221827 -5.996406 -167.901306 10.259192 -37.009720 106.788818
7 106.028137 -11.221827 -5.996406 -167.901306 10.259192 -37.009720 106.788818
[spine02]
6 129.756927 0.001550 0.000119 0.360061 -4.044797 -12.915058 129.756927
7 129.756927 0.001550 0.000119 0.360061 -4.044797 -12.915058 129.756927
[spine03]
6 78.613846 0.087372 -4.898873 1.896495 3.831288 16.473045 78.766380
7 78.613846 0.087372 -4.898873 1.896494 3.831287 16.473045 78.766380
[pelvis]
6 169.435242 0.051022 0.000000 -0.060465 -0.180225 14.087930 169.435257
7 169.435242 0.051022 0.000000 -0.060465 -0.180225 14.087931 169.435257
[null_rope03_connect]
6 -1.257226 -2.466202 137.391083 -168.629944 -89.386742 -148.244751 137.418976
7 -1.257226 -2.466202 137.391083 -168.630096 -89.386742 -148.244614 137.418976
[null_rope04_connect]
6 -1.259640 -2.480268 -137.844437 -168.629944 -89.386742 -148.244751 137.872513
7 -1.259640 -2.480268 -137.844437 -168.630096 -89.386742 -148.244614 137.872513
[Rope3_Seg01]
6 0.000000 0.000000 0.000000 -130.501709 15.271911 -75.023491 0.000000
7 0.000000 0.000000 0.000000 -130.595383 17.066210 -75.156837 0.000000
[Rope3_Seg02]
6 139.999924 -0.000119 0.000060 0.647447 6.679820 5.114183 139.999924
7 139.999924 -0.000119 0.000060 0.662266 6.742282 4.059472 139.999924
[Rope3_Seg03]
6 139.999924 -0.000119 0.000119 2.114540 10.453889 6.934504 139.999924
7 139.999924 -0.000119 0.000119 2.117434 10.504651 5.379086 139.999924
[Rope3_Seg04]
6 139.999924 0.000119 0.000000 8.655974 19.152313 9.518575 139.999924
7 139.999924 0.000119 0.000000 8.547488 19.829885 6.957641 139.999924
[Rope3_Seg05]
6 139.999924 -0.000238 0.000060 -10.416832 -12.228978 5.696686 139.999924
7 139.999924 -0.000238 0.000060 -9.953325 -10.961284 7.680442 139.999924
[Rope3_Seg06]
6 139.999893 -0.000119 -0.000060 -7.356056 -16.247877 0.167103 139.999893
7 139.999893 -0.000119 -0.000060 -7.992643 -14.681917 2.732566 139.999893
[Rope3_Seg07]
6 139.999771 0.000060 -0.000119 -1.799668 -6.191709 0.153497 139.999771
7 139.999771 0.000060 -0.000119 -2.159151 -5.583604 1.151941 139.999771
[Rope3_Seg08]
6 139.999985 -0.000060 0.000000 -0.611166 -3.619358 -0.023563 139.999985
7 139.999985 -0.000060 0.000000 -0.860206 -3.283666 0.550793 139.999985
[Rope3_Seg09]
6 90.185997 -0.000179 -0.000060 89.793228 -1.359877 -0.847183 90.185997
7 90.185997 -0.000179 -0.000060 89.793228 -1.359877 -0.847183 90.185997
[R_rear_hand01]
6 103.366196 -6.073594 -10.757982 -161.551193 16.666374 -30.088671 104.101845
7 103.366196 -6.073594 -10.757982 -161.551193 16.666374 -30.088671 104.101845
[R_rear_hand02]
6 100.509819 12.039542 -7.992327 -34.280552 19.289745 28.875523 101.543350
7 100.509819 12.039542 -7.992327 -34.280552 19.289745 28.875523 101.543350
[R_rear_hand03]
6 101.539970 5.215704 5.435467 83.366440 -30.933914 7.284830 101.819031
7 101.539970 5.215704 5.435467 83.366440 -30.933914 7.284830 101.819031
[Rope4_Seg01]
6 0.000010 0.000038 -0.000114 55.714218 23.600014 -80.203873 0.000121
7 0.000010 0.000038 -0.000114 55.189995 22.416410 -80.027672 0.000121
[Rope4_Seg02]
6 139.999985 0.000060 0.000119 1.866498 -5.540039 -7.055636 139.999985
7 139.999985 0.000060 0.000119 2.107788 -4.810812 -7.379510 139.999985
[Rope4_Seg03]
6 139.999924 0.000000 -0.000238 1.504893 -6.425646 -8.099801 139.999924
7 139.999924 0.000000 -0.000238 1.682974 -5.531164 -8.376508 139.999924
[Rope4_Seg04]
6 139.999985 0.000000 0.000119 1.295458 -8.225131 -13.351039 139.999985
7 139.999985 0.000000 0.000119 1.390328 -6.518580 -13.119968 139.999985
[Rope4_Seg05]
6 139.999802 -0.000060 -0.000119 0.253825 -4.068052 -0.690297 139.999802
7 139.999802 -0.000060 -0.000119 0.199591 -4.256078 -0.931247 139.999802
[Rope4_Seg06]
6 139.999924 0.000000 0.000060 1.207450 0.465189 11.644718 139.999924
7 139.999924 0.000000 0.000060 0.773906 -1.482116 10.139704 139.999924
[Rope4_Seg07]
6 139.999802 0.000000 0.000000 0.295295 -0.308382 6.869638 139.999802
7 139.999802 0.000000 0.000000 0.304057 -1.538034 5.504767 139.999802
[Rope4_Seg08]
6 139.999924 0.000000 0.000119 -1.494468 -0.492718 3.832170 139.999924
7 139.999924 0.000000 0.000119 -1.385066 -1.173954 3.028498 139.999924
[Rope4_Seg09]
6 90.185791 0.000060 0.000060 -135.617828 2.228885 0.850567 90.185791
7 90.185791 0.000060 0.000060 -135.617828 2.228885 0.850567 90.185791
[L_rear_hand01]
6 101.696655 -8.392275 -7.654577 -34.454281 -18.946800 151.655121 102.329041
7 101.696655 -8.392275 -7.654577 -34.454281 -18.946800 151.655121 102.329041
[L_rear_hand02]
6 102.726799 -1.568258 5.773216 83.407906 30.330435 172.796509 102.900848
7 102.726799 -1.568258 5.773216 83.407906 30.330435 172.796509 102.900848
[L_rear_hand03]
6 104.552910 9.721220 -10.420293 -161.379868 -16.473232 -150.512238 105.519653
7 104.552910 9.721220 -10.420293 -161.379868 -16.473232 -150.512238 105.519653
